<?xml version="1.0" encoding="UTF-8" standalone="no"?>
<svg width="51px" height="44px" viewBox="0 0 51 44" version="1.1" xmlns="http://www.w3.org/2000/svg" xmlns:xlink="http://www.w3.org/1999/xlink" xmlns:sketch="http://www.bohemiancoding.com/sketch/ns">
    <!-- Generator: Sketch 3.3.3 (12081) - http://www.bohemiancoding.com/sketch -->
    <title>ico_carrinho</title>
    <desc>Created with Sketch.</desc>
    <defs></defs>
    <g id="Page-1" stroke="none" stroke-width="1" fill="none" fill-rule="evenodd" sketch:type="MSPage">
        <g id="Home" sketch:type="MSArtboardGroup" transform="translate(-306.000000, -1902.000000)" fill="#232528">
            <g id="carrosseis" sketch:type="MSLayerGroup" transform="translate(205.000000, 1286.000000)">
                <g id="comprados" transform="translate(0.000000, 558.000000)" sketch:type="MSShapeGroup">
                    <g id="bt_cart-copy" transform="translate(101.490535, 58.758464)">
                        <path d="M48.8931351,8.85141774 C48.1207481,8.0066194 46.6173518,7.82559118 46.6173518,7.82559118 L12.5461174,7.71697425 C11.9754475,7.56180721 11.1427177,7.31009179 10.9151394,7.09975424 C10.5927368,6.79976462 10.4099845,6.2153021 10.3806752,6.12047779 L9.80138486,1.16030466 L9.74621436,1.1654769 C9.57035837,0.503430849 8.95486244,0 8.18592354,0 L1.63615026,0 C0.734457335,0 0,0.682734988 0,1.52063702 L0,2.02751602 C0,2.86886621 0.734457335,3.54815304 1.63615026,3.54815304 L4.76707637,3.54815304 C5.13602911,3.69814785 5.55325605,3.89124461 5.73083611,4.05503205 C5.9773793,4.28261038 6.14116673,4.68087245 6.22047433,4.90327855 L6.54460104,7.69628531 L6.51873987,7.69628531 L9.79276447,33.1695415 C9.79276447,33.1695415 9.9168981,34.4177741 10.4599828,34.9177568 C10.9996192,35.4160154 11.9995846,35.5298046 11.9995846,35.5298046 L12.1581998,35.5298046 C11.8926918,36.1504728 11.7323525,36.8211392 11.7323525,37.5262872 C11.7323525,40.605491 14.497774,43.1019563 17.9062767,43.1019563 C21.3147794,43.1019563 24.0784769,40.605491 24.0784769,37.5262872 C24.0784769,36.8194151 23.9181376,36.1487487 23.6526295,35.5263564 L29.8334501,35.5246324 C29.567942,36.1470246 29.4076027,36.8194151 29.4076027,37.5262872 C29.4076027,40.605491 32.1713002,43.1019563 35.5798029,43.1019563 C38.9883056,43.1019563 41.7537271,40.605491 41.7537271,37.5262872 C41.7537271,34.5298392 39.1314041,32.102337 35.8504832,31.9713071 C35.7832441,31.9437218 35.7384181,31.9316533 35.7453144,31.9419978 L15.5529099,31.9419978 C15.5529099,31.9419978 14.2943328,31.9954442 13.9150356,31.6902823 C13.549531,31.3937409 13.5167735,30.492048 13.5167735,30.492048 L13.3598824,29.2610561 C13.3598824,29.2610561 13.4753956,28.7007307 13.7874538,28.4110855 C14.101236,28.1214404 15.0856847,28.1593701 15.0856847,28.1593701 L44.6088007,28.1593701 C44.6088007,28.1593701 46.5932147,27.7680043 47.2087107,27.1283713 C47.9535125,26.350812 48.2621225,24.7939693 48.2621225,24.7939693 L49.9999934,11.3220219 C50.0017174,11.3202978 49.6672463,9.69621609 48.8931351,8.85141774 Z M35.581527,35.3815339 C36.8935505,35.3815339 37.9555827,36.3418455 37.9555827,37.5262872 C37.9555827,38.710729 36.8935505,39.6710406 35.581527,39.6710406 C34.2695034,39.6710406 33.2074712,38.7090049 33.2074712,37.5262872 C33.2074712,36.3418455 34.2695034,35.3815339 35.581527,35.3815339 Z M17.9080008,35.3815339 C19.2183003,35.3815339 20.2820566,36.3418455 20.2820566,37.5262872 C20.2820566,38.710729 19.2183003,39.6710406 17.9080008,39.6710406 C16.5959772,39.6710406 15.533945,38.7090049 15.533945,37.5262872 C15.533945,36.3418455 16.5959772,35.3815339 17.9080008,35.3815339 Z M18.5097041,21.4458094 C16.6494237,21.4458094 15.1391311,20.006204 15.1391311,18.2321275 C15.1391311,16.4563269 16.6494237,15.0184456 18.5097041,15.0184456 C20.3717086,15.0184456 21.8820012,16.4563269 21.8820012,18.2321275 C21.8820012,20.006204 20.3717086,21.4458094 18.5097041,21.4458094 Z M28.7334881,21.4458094 C26.8714836,21.4458094 25.3611911,20.006204 25.3611911,18.2321275 C25.3611911,16.4563269 26.8714836,15.0184456 28.7334881,15.0184456 C30.5937686,15.0184456 32.1040611,16.4563269 32.1040611,18.2321275 C32.1040611,20.006204 30.5937686,21.4458094 28.7334881,21.4458094 Z M39.3900158,21.4458094 C37.5280113,21.4458094 36.0194428,20.006204 36.0194428,18.2321275 C36.0194428,16.4563269 37.5280113,15.0184456 39.3900158,15.0184456 C41.2520203,15.0184456 42.7605888,16.4563269 42.7605888,18.2321275 C42.7605888,20.006204 41.2520203,21.4458094 39.3900158,21.4458094 Z" id="ico_carrinho"></path>
                    </g>
                </g>
            </g>
        </g>
    </g>
</svg>